<!-- Generator: Adobe Illustrator 22.0.1, SVG Export Plug-In  -->
<svg version="1.1"
	 xmlns="http://www.w3.org/2000/svg" xmlns:xlink="http://www.w3.org/1999/xlink" xmlns:a="http://ns.adobe.com/AdobeSVGViewerExtensions/3.0/"
	 x="0px" y="0px" width="349.982px" height="233.808px" viewBox="0 0 349.982 233.808"
	 style="enable-background:new 0 0 349.982 233.808;" xml:space="preserve">
<style type="text/css">
	.st0{fill:url(#SVGID_1_);}
	.st1{fill:#54125B;}
	.st2{fill:url(#SVGID_2_);}
	.st3{fill:url(#SVGID_3_);}
	.st4{fill:url(#SVGID_4_);}
	.st5{font-family:'Kiona-Regular';}
	.st6{font-size:25px;}
	.st7{letter-spacing:7;}
	.st8{letter-spacing:6;}
</style>
<defs>
</defs>
<g>
	<linearGradient id="SVGID_1_" gradientUnits="userSpaceOnUse" x1="168.9815" y1="205.1228" x2="169.4815" y2="205.1228">
		<stop  offset="0" style="stop-color:#FCF1DB"/>
		<stop  offset="0.5" style="stop-color:#F5DECE"/>
		<stop  offset="0.586" style="stop-color:#EDD9CF"/>
		<stop  offset="0.7223" style="stop-color:#D6CDD1"/>
		<stop  offset="0.8908" style="stop-color:#B1B8D4"/>
		<stop  offset="1" style="stop-color:#95A9D6"/>
	</linearGradient>
	<polygon class="st0" points="245.394,177.437 229.787,177.437 229.787,232.808 349.982,232.808 349.982,217.202 245.394,217.202 	
		"/>
	<g>
		<rect x="229.787" y="2.778" class="st1" width="15.607" height="127.979"/>
	</g>
	<g>
		<polygon class="st1" points="164.29,177.079 189.385,233.808 206.384,233.808 181.467,177.079 		"/>
	</g>
	<linearGradient id="SVGID_2_" gradientUnits="userSpaceOnUse" x1="37.9814" y1="65.4899" x2="38.4814" y2="65.4899">
		<stop  offset="0" style="stop-color:#FCF1DB"/>
		<stop  offset="0.5" style="stop-color:#F5DECE"/>
		<stop  offset="0.586" style="stop-color:#EDD9CF"/>
		<stop  offset="0.7223" style="stop-color:#D6CDD1"/>
		<stop  offset="0.8908" style="stop-color:#B1B8D4"/>
		<stop  offset="1" style="stop-color:#95A9D6"/>
	</linearGradient>
	<polygon class="st2" points="62.638,130.98 105.444,38.504 146.334,130.98 163.667,130.98 106.137,0 45.227,130.98 	"/>
	<g>
		<polygon class="st1" points="26.381,176.079 0,232.808 17.342,232.808 43.817,176.079 		"/>
	</g>
</g>
<g>
	<path d="M26.334,157.463l-1.925,4.125h-1.25l7.65-16.45l7.225,16.45h-1.225l-1.825-4.125H26.334z M30.759,147.913l-3.9,8.425h7.625
		L30.759,147.913z"/>
	<path d="M58.659,161.588l-6.75-8.2h2c1.233,0,2.233-0.158,3-0.475c0.566-0.267,1.058-0.671,1.475-1.213
		c0.417-0.541,0.625-1.137,0.625-1.787c0-0.583-0.175-1.138-0.525-1.662c-0.35-0.525-0.85-0.954-1.5-1.288
		c-0.65-0.333-1.4-0.5-2.25-0.5h-4.55v15.125h-1.125v-16.25h5.675c0.766,0,1.483,0.121,2.15,0.362
		c0.667,0.242,1.25,0.588,1.75,1.038c0.483,0.434,0.854,0.925,1.112,1.475s0.388,1.117,0.388,1.7c0,0.917-0.275,1.737-0.825,2.463
		c-0.55,0.725-1.2,1.246-1.95,1.562c-0.517,0.233-1.021,0.379-1.513,0.438c-0.492,0.059-1.013,0.087-1.562,0.087l5.875,7.125H58.659
		z"/>
	<path d="M84.609,145.338v1.15h-6.425v15.1h-1.15v-15.1h-6.45v-1.15H84.609z"/>
	<path d="M121.009,152.888v1.15h-4.325v4.3h-1.15v-4.3h-4.325v-1.15h4.325v-4.35h1.15v4.35H121.009z"/>
	<path d="M153.183,161.588h-4.675v-16.25h4.675c1.15,0,2.216,0.213,3.2,0.638s1.833,1.029,2.55,1.812
		c0.683,0.75,1.208,1.608,1.575,2.575s0.55,1.991,0.55,3.075c0,1.083-0.184,2.108-0.55,3.074c-0.367,0.967-0.892,1.834-1.575,2.601
		c-0.717,0.8-1.567,1.412-2.55,1.837C155.399,161.376,154.333,161.588,153.183,161.588z M149.633,160.463h3.55
		c2.016,0,3.658-0.708,4.925-2.125c0.583-0.633,1.029-1.37,1.337-2.212c0.308-0.842,0.462-1.738,0.462-2.688
		c0-0.934-0.154-1.821-0.462-2.663c-0.309-0.841-0.754-1.579-1.337-2.212c-1.284-1.384-2.925-2.075-4.925-2.075h-3.55V160.463z"/>
	<path d="M172.332,161.588v-16.25h10.525v1.15h-9.4v6.399h7.325v1.15h-7.325v6.375h9.4v1.175H172.332z"/>
	<path d="M204.719,155.301c0.425,0.625,0.637,1.296,0.637,2.013c0,0.616-0.149,1.204-0.449,1.762
		c-0.301,0.559-0.734,1.047-1.301,1.463c-1.166,0.834-2.524,1.25-4.074,1.25c-0.768,0-1.5-0.108-2.2-0.325
		c-0.7-0.216-1.325-0.524-1.875-0.925c-0.95-0.7-1.525-1.559-1.726-2.575l1.075-0.6c0.05,0.917,0.5,1.667,1.351,2.25
		c0.433,0.333,0.941,0.587,1.524,0.763c0.583,0.175,1.2,0.262,1.851,0.262c1.333,0,2.458-0.341,3.375-1.024
		c0.883-0.65,1.324-1.417,1.324-2.3c0-0.517-0.162-1-0.487-1.45s-0.779-0.833-1.362-1.15c-0.55-0.283-1.533-0.508-2.95-0.675
		c-0.116-0.017-0.537-0.083-1.263-0.2c-0.725-0.116-1.346-0.3-1.862-0.55c-0.816-0.4-1.458-0.929-1.925-1.588
		c-0.467-0.658-0.7-1.37-0.7-2.137c0-0.617,0.154-1.196,0.463-1.738c0.308-0.541,0.745-1.021,1.312-1.438
		c0.55-0.399,1.175-0.708,1.875-0.925c0.7-0.216,1.433-0.325,2.2-0.325c1.55,0,2.908,0.417,4.074,1.25
		c0.967,0.734,1.533,1.584,1.7,2.551l-1.075,0.6c-0.017-0.416-0.137-0.816-0.362-1.2c-0.225-0.383-0.546-0.733-0.962-1.05
		c-0.45-0.333-0.967-0.588-1.551-0.763c-0.583-0.175-1.191-0.263-1.824-0.263c-0.634,0-1.246,0.088-1.838,0.263
		s-1.104,0.43-1.537,0.763c-0.434,0.316-0.768,0.671-1,1.062c-0.234,0.392-0.351,0.796-0.351,1.213c0,0.517,0.191,1.029,0.575,1.537
		c0.383,0.509,0.858,0.904,1.425,1.188c0.351,0.167,0.737,0.287,1.163,0.362c0.425,0.075,0.971,0.154,1.637,0.237
		c0.117,0.018,0.408,0.059,0.875,0.125c0.467,0.067,0.917,0.159,1.351,0.275c0.433,0.117,0.8,0.259,1.1,0.425
		C203.698,154.147,204.294,154.676,204.719,155.301z"/>
	<path d="M217.382,161.588v-16.25h1.125v16.25H217.382z"/>
	<path d="M244.157,161.588h-5.875c-1.483,0-2.851-0.366-4.101-1.1s-2.241-1.729-2.975-2.987c-0.733-1.259-1.1-2.638-1.1-4.138
		c0-1.483,0.366-2.854,1.1-4.112c0.733-1.259,1.725-2.259,2.975-3c1.25-0.742,2.617-1.113,4.101-1.113
		c1.133,0,2.221,0.234,3.263,0.7c1.041,0.467,1.945,1.117,2.712,1.95l-0.825,0.775c-0.666-0.717-1.449-1.271-2.35-1.663
		s-1.834-0.587-2.8-0.587c-1.267,0-2.442,0.316-3.525,0.949c-1.083,0.634-1.941,1.488-2.575,2.562
		c-0.633,1.075-0.949,2.255-0.949,3.538s0.316,2.467,0.949,3.55c0.634,1.084,1.492,1.946,2.575,2.588s2.259,0.962,3.525,0.962h4.7
		v-5.825h-5.351v-1.125h6.525V161.588z"/>
	<path d="M257.606,148.388v13.2h-1.125v-16.45l11.25,13.45v-13.25h1.125v16.525L257.606,148.388z"/>
</g>
</svg>